<svg data-v-423bf9ae="" xmlns="http://www.w3.org/2000/svg" viewBox="0 0 596.884614638947 163" class="iconAbove"><!----><defs data-v-423bf9ae=""><linearGradient data-v-423bf9ae="" gradientTransform="rotate(25)" id="c981f061-2244-4fd5-9e70-7228da67f835" x1="0%" y1="0%" x2="100%" y2="0%"><stop data-v-423bf9ae="" offset="0%" style="stop-color: rgb(140, 72, 210); stop-opacity: 1;"></stop><stop data-v-423bf9ae="" offset="100%" style="stop-color: rgb(207, 112, 90); stop-opacity: 1;"></stop></linearGradient></defs><!----><g data-v-423bf9ae="" id="acaa3518-db88-4419-afb3-7e9ee3ca5071" fill="#ffffff" transform="matrix(5.808325290679932,0,0,5.808325290679932,-2.5345242023468018,84.8780288696289)"><path d="M0.57 12.66L0.57 12.66Q0.36 12.46 0.48 12.29L0.48 12.29L0.79 11.86Q0.94 11.66 1.23 11.88L1.23 11.88Q1.63 12.19 2.13 12.37Q2.63 12.56 3.26 12.56L3.26 12.56Q3.64 12.56 3.93 12.47Q4.22 12.37 4.45 12.12Q4.67 11.87 4.67 11.44L4.67 11.44Q4.67 11.20 4.56 10.98Q4.46 10.76 4.23 10.63Q4.01 10.49 3.80 10.42L3.80 10.42Q3.45 10.29 3.11 10.20Q2.76 10.12 2.20 9.94L2.20 9.94Q1.83 9.82 1.49 9.61Q1.16 9.39 0.91 9.02Q0.66 8.65 0.66 8.00L0.66 8.00Q0.66 7.34 1.06 6.86Q1.46 6.38 2.07 6.21Q2.68 6.04 3.25 6.04L3.25 6.04Q4.10 6.04 4.62 6.23Q5.13 6.43 5.51 6.69L5.51 6.69Q5.73 6.85 5.57 7.05L5.57 7.05L5.26 7.46Q5.12 7.66 4.82 7.45L4.82 7.45Q4.57 7.27 4.10 7.12Q3.64 6.96 3.29 6.96L3.29 6.96Q2.86 6.96 2.55 7.05Q2.24 7.15 2.05 7.38Q1.86 7.62 1.86 7.93L1.86 7.93Q1.86 8.17 1.93 8.36Q2.01 8.54 2.21 8.70Q2.42 8.86 2.79 8.96L2.79 8.96Q3.36 9.11 3.84 9.23Q4.31 9.35 4.70 9.53L4.70 9.53Q5.20 9.76 5.47 10.04Q5.74 10.32 5.84 10.65Q5.94 10.97 5.94 11.37L5.94 11.37Q5.94 12.10 5.51 12.61Q5.07 13.11 4.54 13.28Q4.01 13.45 3.25 13.45L3.25 13.45Q2.24 13.45 1.51 13.16Q0.78 12.87 0.57 12.66ZM7.03 11.42L7.03 11.42Q7.03 10.20 8.17 9.63Q9.31 9.06 11.57 8.97L11.57 8.97L11.57 8.50Q11.57 7.86 11.28 7.39Q10.99 6.92 10.13 6.92L10.13 6.92Q9.58 6.92 9.26 7.03Q8.93 7.14 8.66 7.31Q8.39 7.49 8.14 7.76L8.14 7.76Q7.96 7.96 7.79 7.78L7.79 7.78L7.44 7.37Q7.29 7.20 7.54 6.96L7.54 6.96Q7.90 6.62 8.24 6.45Q8.59 6.28 9.10 6.16Q9.60 6.04 10.13 6.04L10.13 6.04Q11.56 6.04 12.17 6.77Q12.78 7.51 12.78 8.78L12.78 8.78L12.78 13.02Q12.78 13.33 12.47 13.33L12.47 13.33L11.85 13.33Q11.59 13.33 11.59 13.02L11.59 13.02L11.59 12.69L11.57 12.69Q11.03 13.11 10.52 13.28Q10.00 13.45 9.37 13.45L9.37 13.45Q8.24 13.45 7.64 12.91Q7.03 12.37 7.03 11.42ZM8.28 11.44L8.28 11.44Q8.28 11.87 8.46 12.12Q8.63 12.38 8.95 12.45Q9.26 12.52 9.60 12.52L9.60 12.52Q10.13 12.52 10.60 12.42Q11.07 12.32 11.57 11.88L11.57 11.88L11.57 9.86Q10.19 9.97 9.60 10.11Q9.02 10.26 8.65 10.62Q8.28 10.98 8.28 11.44ZM15.09 7.05L14.36 7.05Q14.05 7.05 14.05 6.82L14.05 6.82L14.05 6.39Q14.05 6.15 14.36 6.15L14.36 6.15L15.09 6.15L15.09 5.13Q15.09 3.99 15.71 3.56Q16.32 3.12 17.12 3.12L17.12 3.12Q17.59 3.12 17.88 3.17Q18.17 3.22 18.57 3.38L18.57 3.38Q18.72 3.45 18.66 3.60L18.66 3.60L18.44 4.14Q18.39 4.28 18.20 4.20L18.20 4.20Q18.05 4.13 17.83 4.07Q17.62 4.01 17.36 4.01L17.36 4.01Q16.80 4.01 16.55 4.29Q16.30 4.56 16.30 5.33L16.30 5.33L16.30 6.15L17.55 6.15Q17.86 6.15 17.86 6.39L17.86 6.39L17.86 6.82Q17.86 7.05 17.55 7.05L17.55 7.05L16.30 7.05L16.30 13.02Q16.30 13.33 15.99 13.33L15.99 13.33L15.40 13.33Q15.09 13.33 15.09 13.02L15.09 13.02L15.09 7.05ZM18.79 9.74L18.79 9.74Q18.79 8.05 19.63 7.04Q20.48 6.04 22.06 6.04L22.06 6.04Q23.37 6.04 24.24 6.96Q25.10 7.88 25.10 9.89L25.10 9.89Q25.10 10.20 24.82 10.20L24.82 10.20L20.06 10.20Q20.17 11.52 20.77 12.03Q21.36 12.55 22.11 12.55L22.11 12.55Q22.91 12.55 23.33 12.28Q23.75 12.02 23.95 11.76L23.95 11.76Q24.17 11.47 24.38 11.65L24.38 11.65L24.78 12.00Q24.94 12.13 24.78 12.37L24.78 12.37Q24.65 12.57 24.04 13.01Q23.43 13.45 22.11 13.45L22.11 13.45Q20.41 13.45 19.60 12.44Q18.79 11.44 18.79 9.74ZM20.03 9.31L20.03 9.31L23.89 9.31Q23.86 8.35 23.40 7.63Q22.93 6.91 22.03 6.91L22.03 6.91Q21.24 6.91 20.69 7.44Q20.13 7.97 20.03 9.31ZM26.29 9.74L26.29 9.74Q26.29 8.13 27.09 7.09Q27.88 6.04 29.52 6.04L29.52 6.04Q30.63 6.04 31.22 6.43Q31.80 6.82 32.06 7.23L32.06 7.23Q32.20 7.46 32.00 7.59L32.00 7.59L31.57 7.88Q31.36 8.02 31.16 7.69L31.16 7.69Q30.96 7.38 30.60 7.15Q30.24 6.92 29.52 6.92L29.52 6.92Q28.59 6.92 28.08 7.62Q27.56 8.31 27.56 9.74L27.56 9.74Q27.56 11.18 28.08 11.87Q28.59 12.56 29.52 12.56L29.52 12.56Q30.28 12.56 30.69 12.27Q31.09 11.98 31.27 11.63L31.27 11.63Q31.45 11.31 31.68 11.45L31.68 11.45L32.14 11.72Q32.34 11.85 32.20 12.09L32.20 12.09Q32.03 12.39 31.42 12.92Q30.82 13.45 29.52 13.45L29.52 13.45Q27.88 13.45 27.09 12.40Q26.29 11.35 26.29 9.74ZM33.30 11.42L33.30 11.42Q33.30 10.20 34.44 9.63Q35.58 9.06 37.84 8.97L37.84 8.97L37.84 8.50Q37.84 7.86 37.55 7.39Q37.26 6.92 36.40 6.92L36.40 6.92Q35.85 6.92 35.53 7.03Q35.20 7.14 34.93 7.31Q34.66 7.49 34.41 7.76L34.41 7.76Q34.23 7.96 34.06 7.78L34.06 7.78L33.71 7.37Q33.56 7.20 33.81 6.96L33.81 6.96Q34.17 6.62 34.51 6.45Q34.86 6.28 35.37 6.16Q35.88 6.04 36.40 6.04L36.40 6.04Q37.83 6.04 38.44 6.77Q39.05 7.51 39.05 8.78L39.05 8.78L39.05 13.02Q39.05 13.33 38.74 13.33L38.74 13.33L38.12 13.33Q37.86 13.33 37.86 13.02L37.86 13.02L37.86 12.69L37.84 12.69Q37.30 13.11 36.79 13.28Q36.27 13.45 35.64 13.45L35.64 13.45Q34.51 13.45 33.91 12.91Q33.30 12.37 33.30 11.42ZM34.55 11.44L34.55 11.44Q34.55 11.87 34.73 12.12Q34.90 12.38 35.22 12.45Q35.53 12.52 35.88 12.52L35.88 12.52Q36.40 12.52 36.87 12.42Q37.34 12.32 37.84 11.88L37.84 11.88L37.84 9.86Q36.46 9.97 35.88 10.11Q35.29 10.26 34.92 10.62Q34.55 10.98 34.55 11.44ZM41.88 13.33L41.30 13.33Q40.99 13.33 40.99 13.02L40.99 13.02L40.99 6.46Q40.99 6.15 41.30 6.15L41.30 6.15L41.87 6.15Q42.18 6.15 42.18 6.46L42.18 6.46L42.18 7.01L42.21 7.01Q42.65 6.51 43.16 6.28Q43.67 6.04 44.44 6.04L44.44 6.04Q45.68 6.04 46.23 6.74Q46.77 7.44 46.77 8.65L46.77 8.65L46.77 13.02Q46.77 13.33 46.46 13.33L46.46 13.33L45.88 13.33Q45.57 13.33 45.57 13.02L45.57 13.02L45.57 8.98Q45.57 7.64 45.12 7.28Q44.68 6.92 44.00 6.92L44.00 6.92Q43.11 6.92 42.65 7.45Q42.19 7.98 42.19 9.27L42.19 9.27L42.19 13.02Q42.19 13.33 41.88 13.33L41.88 13.33ZM49.16 7.05L48.35 7.05Q48.04 7.05 48.04 6.82L48.04 6.82L48.04 6.39Q48.04 6.15 48.35 6.15L48.35 6.15L49.16 6.15L49.16 5.54Q49.16 5.40 49.23 5.28L49.23 5.28L49.70 4.41Q49.83 4.17 49.92 4.17L49.92 4.17L50.16 4.17Q50.36 4.17 50.36 4.41L50.36 4.41L50.36 6.15L51.82 6.15Q52.12 6.15 52.12 6.39L52.12 6.39L52.12 6.82Q52.12 7.05 51.82 7.05L51.82 7.05L50.36 7.05L50.36 11.41Q50.36 12.13 50.58 12.34Q50.79 12.56 51.09 12.56L51.09 12.56Q51.32 12.56 51.65 12.42Q51.97 12.28 52.10 12.19L52.10 12.19Q52.22 12.09 52.29 12.25L52.29 12.25L52.51 12.78Q52.57 12.91 52.43 13.00L52.43 13.00Q52.17 13.15 51.65 13.30Q51.14 13.45 50.63 13.45L50.63 13.45Q49.92 13.45 49.54 12.93Q49.16 12.42 49.16 11.48L49.16 11.48L49.16 7.05ZM53.48 9.74L53.48 9.74Q53.48 8.13 54.34 7.09Q55.19 6.04 56.83 6.04L56.83 6.04Q58.47 6.04 59.32 7.09Q60.17 8.13 60.17 9.74L60.17 9.74Q60.17 11.35 59.32 12.40Q58.47 13.45 56.83 13.45L56.83 13.45Q55.19 13.45 54.34 12.40Q53.48 11.35 53.48 9.74ZM54.76 9.74L54.76 9.74Q54.76 11.18 55.32 11.87Q55.89 12.56 56.83 12.56L56.83 12.56Q57.76 12.56 58.33 11.87Q58.90 11.18 58.90 9.74L58.90 9.74Q58.90 8.31 58.33 7.62Q57.76 6.92 56.83 6.92L56.83 6.92Q55.89 6.92 55.32 7.62Q54.76 8.31 54.76 9.74ZM62.62 13.33L62.03 13.33Q61.72 13.33 61.72 13.02L61.72 13.02L61.72 6.46Q61.72 6.15 62.03 6.15L62.03 6.15L62.60 6.15Q62.91 6.15 62.91 6.46L62.91 6.46L62.91 7.01L62.94 7.01Q63.38 6.51 63.90 6.28Q64.41 6.04 65.17 6.04L65.17 6.04Q66.42 6.04 66.96 6.74Q67.50 7.44 67.50 8.65L67.50 8.65L67.50 13.02Q67.50 13.33 67.20 13.33L67.20 13.33L66.61 13.33Q66.30 13.33 66.30 13.02L66.30 13.02L66.30 8.98Q66.30 7.64 65.86 7.28Q65.41 6.92 64.73 6.92L64.73 6.92Q63.84 6.92 63.38 7.45Q62.92 7.98 62.92 9.27L62.92 9.27L62.92 13.02Q62.92 13.33 62.62 13.33L62.62 13.33ZM69.04 9.74L69.04 9.74Q69.04 8.05 69.89 7.04Q70.74 6.04 72.32 6.04L72.32 6.04Q73.63 6.04 74.49 6.96Q75.36 7.88 75.36 9.89L75.36 9.89Q75.36 10.20 75.08 10.20L75.08 10.20L70.31 10.20Q70.43 11.52 71.03 12.03Q71.62 12.55 72.37 12.55L72.37 12.55Q73.17 12.55 73.59 12.28Q74.01 12.02 74.21 11.76L74.21 11.76Q74.43 11.47 74.63 11.65L74.63 11.65L75.04 12.00Q75.20 12.13 75.04 12.37L75.04 12.37Q74.91 12.57 74.30 13.01Q73.68 13.45 72.37 13.45L72.37 13.45Q70.66 13.45 69.85 12.44Q69.04 11.44 69.04 9.74ZM70.29 9.31L70.29 9.31L74.15 9.31Q74.12 8.35 73.66 7.63Q73.19 6.91 72.29 6.91L72.29 6.91Q71.50 6.91 70.94 7.44Q70.39 7.97 70.29 9.31ZM76.54 12.66L76.54 12.66Q76.32 12.46 76.45 12.29L76.45 12.29L76.75 11.86Q76.90 11.66 77.20 11.88L77.20 11.88Q77.60 12.19 78.10 12.37Q78.59 12.56 79.23 12.56L79.23 12.56Q79.60 12.56 79.90 12.47Q80.19 12.37 80.41 12.12Q80.64 11.87 80.64 11.44L80.64 11.44Q80.64 11.20 80.53 10.98Q80.42 10.76 80.20 10.63Q79.98 10.49 79.77 10.42L79.77 10.42Q79.42 10.29 79.07 10.20Q78.73 10.12 78.17 9.94L78.17 9.94Q77.79 9.82 77.46 9.61Q77.12 9.39 76.87 9.02Q76.62 8.65 76.62 8.00L76.62 8.00Q76.62 7.34 77.03 6.86Q77.43 6.38 78.04 6.21Q78.65 6.04 79.22 6.04L79.22 6.04Q80.07 6.04 80.59 6.23Q81.10 6.43 81.48 6.69L81.48 6.69Q81.70 6.85 81.54 7.05L81.54 7.05L81.23 7.46Q81.09 7.66 80.79 7.45L80.79 7.45Q80.53 7.27 80.07 7.12Q79.60 6.96 79.26 6.96L79.26 6.96Q78.83 6.96 78.52 7.05Q78.21 7.15 78.02 7.38Q77.83 7.62 77.83 7.93L77.83 7.93Q77.83 8.17 77.90 8.36Q77.98 8.54 78.18 8.70Q78.39 8.86 78.76 8.96L78.76 8.96Q79.33 9.11 79.81 9.23Q80.28 9.35 80.66 9.53L80.66 9.53Q81.16 9.76 81.43 10.04Q81.70 10.32 81.81 10.65Q81.91 10.97 81.91 11.37L81.91 11.37Q81.91 12.10 81.47 12.61Q81.04 13.11 80.51 13.28Q79.97 13.45 79.22 13.45L79.22 13.45Q78.20 13.45 77.48 13.16Q76.75 12.87 76.54 12.66ZM83.00 9.74L83.00 9.74Q83.00 8.05 83.85 7.04Q84.70 6.04 86.28 6.04L86.28 6.04Q87.59 6.04 88.45 6.96Q89.32 7.88 89.32 9.89L89.32 9.89Q89.32 10.20 89.04 10.20L89.04 10.20L84.27 10.20Q84.39 11.52 84.98 12.03Q85.58 12.55 86.33 12.55L86.33 12.55Q87.12 12.55 87.55 12.28Q87.97 12.02 88.17 11.76L88.17 11.76Q88.39 11.47 88.59 11.65L88.59 11.65L89.00 12.00Q89.15 12.13 89.00 12.37L89.00 12.37Q88.87 12.57 88.26 13.01Q87.64 13.45 86.33 13.45L86.33 13.45Q84.62 13.45 83.81 12.44Q83.00 11.44 83.00 9.74ZM84.25 9.31L84.25 9.31L88.11 9.31Q88.08 8.35 87.62 7.63Q87.15 6.91 86.25 6.91L86.25 6.91Q85.46 6.91 84.90 7.44Q84.35 7.97 84.25 9.31ZM92.07 13.33L91.30 13.33Q90.99 13.33 90.99 13.02L90.99 13.02L90.99 12.19Q90.99 11.88 91.30 11.88L91.30 11.88L92.07 11.88Q92.37 11.88 92.37 12.19L92.37 12.19L92.37 13.02Q92.37 13.33 92.07 13.33L92.07 13.33ZM94.32 11.42L94.32 11.42Q94.32 10.20 95.45 9.63Q96.59 9.06 98.85 8.97L98.85 8.97L98.85 8.50Q98.85 7.86 98.56 7.39Q98.27 6.92 97.41 6.92L97.41 6.92Q96.87 6.92 96.54 7.03Q96.21 7.14 95.94 7.31Q95.67 7.49 95.42 7.76L95.42 7.76Q95.24 7.96 95.07 7.78L95.07 7.78L94.72 7.37Q94.57 7.20 94.82 6.96L94.82 6.96Q95.18 6.62 95.53 6.45Q95.87 6.28 96.38 6.16Q96.89 6.04 97.41 6.04L97.41 6.04Q98.84 6.04 99.45 6.77Q100.06 7.51 100.06 8.78L100.06 8.78L100.06 13.02Q100.06 13.33 99.75 13.33L99.75 13.33L99.13 13.33Q98.87 13.33 98.87 13.02L98.87 13.02L98.87 12.69L98.85 12.69Q98.31 13.11 97.80 13.28Q97.28 13.45 96.65 13.45L96.65 13.45Q95.53 13.45 94.92 12.91Q94.32 12.37 94.32 11.42ZM95.56 11.44L95.56 11.44Q95.56 11.87 95.74 12.12Q95.92 12.38 96.23 12.45Q96.54 12.52 96.89 12.52L96.89 12.52Q97.41 12.52 97.88 12.42Q98.36 12.32 98.85 11.88L98.85 11.88L98.85 9.86Q97.47 9.97 96.89 10.11Q96.30 10.26 95.93 10.62Q95.56 10.98 95.56 11.44ZM102.89 13.33L102.31 13.33Q102.00 13.33 102.00 13.02L102.00 13.02L102.00 6.46Q102.00 6.15 102.31 6.15L102.31 6.15L102.89 6.15Q103.20 6.15 103.20 6.46L103.20 6.46L103.20 13.02Q103.20 13.33 102.89 13.33L102.89 13.33ZM102.89 4.85L102.31 4.85Q102.00 4.85 102.00 4.55L102.00 4.55L102.00 3.96Q102.00 3.65 102.31 3.65L102.31 3.65L102.89 3.65Q103.20 3.65 103.20 3.96L103.20 3.96L103.20 4.55Q103.20 4.85 102.89 4.85L102.89 4.85Z"></path></g><!----><g data-v-423bf9ae="" id="897b2182-1afd-4ad5-904b-ef6f44fce6e5" transform="matrix(2.8125,0,0,2.8125,253.82998657226562,0)" stroke="none" fill="#ffffff"><path d="M2.83 18.247l26.34-9.124L2.83 0zM29.17 32V13.753L2.83 22.877z"></path></g><!----></svg>